<svg xmlns="http://www.w3.org/2000/svg" xmlns:svg="http://www.w3.org/2000/svg" id="svg8" width="80.388" height="143.168" version="1.1" viewBox="0 0 21.269 37.88"><defs id="defs2"><marker style="overflow:visible" id="marker2567" orient="auto" refX="0" refY="0"><path style="fill:#000;fill-opacity:1;fill-rule:evenodd;stroke:#000;stroke-width:1pt;stroke-opacity:1" id="path2565" d="M 0,0 5,-5 -12.5,0 5,5 Z" transform="matrix(0.8,0,0,0.8,10,0)"/></marker><marker style="overflow:visible" id="marker2473" orient="auto" refX="0" refY="0"><path style="fill:#000;fill-opacity:1;fill-rule:evenodd;stroke:#000;stroke-width:1pt;stroke-opacity:1" id="path2471" d="M 0,0 5,-5 -12.5,0 5,5 Z" transform="matrix(-0.8,0,0,-0.8,-10,0)"/></marker><marker style="overflow:visible" id="marker2373" orient="auto" refX="0" refY="0"><path style="fill:#000;fill-opacity:1;fill-rule:evenodd;stroke:#000;stroke-width:.625;stroke-linejoin:round;stroke-opacity:1" id="path2371" d="M 8.7185878,4.0337352 -2.2072895,0.01601326 8.7185884,-4.0017078 c -1.7454984,2.3720609 -1.7354408,5.6174519 -6e-7,8.035443 z" transform="matrix(1.1,0,0,1.1,1.1,0)"/></marker><marker style="overflow:visible" id="marker1615" orient="auto" refX="0" refY="0"><path style="fill:#000;fill-opacity:1;fill-rule:evenodd;stroke:#000;stroke-width:.625;stroke-linejoin:round;stroke-opacity:1" id="path1613" d="M 8.7185878,4.0337352 -2.2072895,0.01601326 8.7185884,-4.0017078 c -1.7454984,2.3720609 -1.7354408,5.6174519 -6e-7,8.035443 z" transform="matrix(1.1,0,0,1.1,1.1,0)"/></marker><marker style="overflow:visible" id="marker1483" orient="auto" refX="0" refY="0"><path style="fill:#000;fill-opacity:1;fill-rule:evenodd;stroke:#000;stroke-width:.625;stroke-linejoin:round;stroke-opacity:1" id="path1481" d="M 8.7185878,4.0337352 -2.2072895,0.01601326 8.7185884,-4.0017078 c -1.7454984,2.3720609 -1.7354408,5.6174519 -6e-7,8.035443 z" transform="matrix(1.1,0,0,1.1,1.1,0)"/></marker><marker style="overflow:visible" id="Arrow2Lstart" orient="auto" refX="0" refY="0"><path style="fill:#000;fill-opacity:1;fill-rule:evenodd;stroke:#000;stroke-width:.625;stroke-linejoin:round;stroke-opacity:1" id="path1025" d="M 8.7185878,4.0337352 -2.2072895,0.01601326 8.7185884,-4.0017078 c -1.7454984,2.3720609 -1.7354408,5.6174519 -6e-7,8.035443 z" transform="matrix(1.1,0,0,1.1,1.1,0)"/></marker><marker style="overflow:visible" id="marker1337" orient="auto" refX="0" refY="0"><path style="fill:#000;fill-opacity:1;fill-rule:evenodd;stroke:#000;stroke-width:1pt;stroke-opacity:1" id="path1335" d="M 0,0 5,-5 -12.5,0 5,5 Z" transform="matrix(0.8,0,0,0.8,10,0)"/></marker><marker style="overflow:visible" id="Arrow1Lend" orient="auto" refX="0" refY="0"><path style="fill:#000;fill-opacity:1;fill-rule:evenodd;stroke:#000;stroke-width:1pt;stroke-opacity:1" id="path1010" d="M 0,0 5,-5 -12.5,0 5,5 Z" transform="matrix(-0.8,0,0,-0.8,-10,0)"/></marker><marker style="overflow:visible" id="Arrow1Lstart" orient="auto" refX="0" refY="0"><path style="fill:#000;fill-opacity:1;fill-rule:evenodd;stroke:#000;stroke-width:1pt;stroke-opacity:1" id="path1007" d="M 0,0 5,-5 -12.5,0 5,5 Z" transform="matrix(0.8,0,0,0.8,10,0)"/></marker><marker style="overflow:visible" id="Arrow1Mend" orient="auto" refX="0" refY="0"><path style="fill:#000;fill-opacity:1;fill-rule:evenodd;stroke:#000;stroke-width:1pt;stroke-opacity:1" id="path1016" d="M 0,0 5,-5 -12.5,0 5,5 Z" transform="matrix(-0.4,0,0,-0.4,-4,0)"/></marker><marker style="overflow:visible" id="marker1615-4" orient="auto" refX="0" refY="0"><path style="fill:#000;fill-opacity:1;fill-rule:evenodd;stroke:#000;stroke-width:.625;stroke-linejoin:round;stroke-opacity:1" id="path1613-0" d="M 8.7185878,4.0337352 -2.2072895,0.01601326 8.7185884,-4.0017078 c -1.7454984,2.3720609 -1.7354408,5.6174519 -6e-7,8.035443 z" transform="matrix(1.1,0,0,1.1,1.1,0)"/></marker><marker style="overflow:visible" id="marker1615-6" orient="auto" refX="0" refY="0"><path style="fill:#000;fill-opacity:1;fill-rule:evenodd;stroke:#000;stroke-width:.625;stroke-linejoin:round;stroke-opacity:1" id="path1613-4" d="M 8.7185878,4.0337352 -2.2072895,0.01601326 8.7185884,-4.0017078 c -1.7454984,2.3720609 -1.7354408,5.6174519 -6e-7,8.035443 z" transform="matrix(1.1,0,0,1.1,1.1,0)"/></marker><marker style="overflow:visible" id="marker1615-43" orient="auto" refX="0" refY="0"><path style="fill:#000;fill-opacity:1;fill-rule:evenodd;stroke:#000;stroke-width:.625;stroke-linejoin:round;stroke-opacity:1" id="path1613-8" d="M 8.7185878,4.0337352 -2.2072895,0.01601326 8.7185884,-4.0017078 c -1.7454984,2.3720609 -1.7354408,5.6174519 -6e-7,8.035443 z" transform="matrix(1.1,0,0,1.1,1.1,0)"/></marker><marker style="overflow:visible" id="marker1615-0" orient="auto" refX="0" refY="0"><path style="fill:#000;fill-opacity:1;fill-rule:evenodd;stroke:#000;stroke-width:.625;stroke-linejoin:round;stroke-opacity:1" id="path1613-9" d="M 8.7185878,4.0337352 -2.2072895,0.01601326 8.7185884,-4.0017078 c -1.7454984,2.3720609 -1.7354408,5.6174519 -6e-7,8.035443 z" transform="matrix(1.1,0,0,1.1,1.1,0)"/></marker></defs><metadata id="metadata5"/><g id="layer1" transform="translate(-105.50381,-112.31652)"><ellipse style="fill:none;fill-rule:evenodd;stroke-width:.264583" id="path12" cx="99.03" cy="144.765" rx="62.744" ry="57.074"/><circle style="fill:#575757;fill-opacity:1;fill-rule:evenodd;stroke-width:.317037" id="path1003" cx="111" cy="148.196" r="2"/><path style="fill:none;stroke:#000;stroke-width:.265;stroke-linecap:butt;stroke-linejoin:miter;stroke-miterlimit:4;stroke-dasharray:none;stroke-opacity:1;marker-start:url(#Arrow2Lstart)" id="path1005" d="m 110.89767,133.45224 0.0798,11.75959 v 0"/><path style="fill:#eff300;fill-opacity:1;stroke:#000;stroke-width:.264999;stroke-miterlimit:4;stroke-dasharray:none;stroke-opacity:1" id="path1431" d="m 111.14937,133.45223 -3.06822,-2.23772 -2.47233,2.88252 -0.16349,-3.79402 -3.79512,-0.13573 2.86436,-2.49335 -2.26011,-3.05177 3.73528,0.68487 0.97682,-3.66977 1.79346,3.34736 3.47817,-1.52435 -1.49887,3.48923 3.3604,1.76892 -3.66252,1.00364 z" transform="matrix(0.48194672,0,0,0.48154961,59.010229,67.825387)"/><path style="fill:none;stroke:#000;stroke-width:.0911238;stroke-linecap:butt;stroke-linejoin:miter;stroke-miterlimit:4;stroke-dasharray:none;stroke-opacity:1;marker-start:url(#marker1615)" id="path1611" d="m 106.66034,117.69063 2.7457,8.07874 v 0 0"/><path style="fill:none;stroke:#000;stroke-width:.0814176;stroke-linecap:butt;stroke-linejoin:miter;stroke-miterlimit:4;stroke-dasharray:none;stroke-opacity:1;marker-start:url(#marker1615-4)" id="path1611-4" d="m 113.958,118.9097 -1.64691,6.95468 v 0 0"/><path style="fill:none;stroke:#000;stroke-width:.0911238;stroke-linecap:butt;stroke-linejoin:miter;stroke-miterlimit:4;stroke-dasharray:none;stroke-opacity:1;marker-start:url(#marker1615-6)" id="path1611-6" d="m 112.14419,116.37969 -0.68778,8.50482 v 0 0"/><path style="fill:none;stroke:#000;stroke-width:.0771654;stroke-linecap:butt;stroke-linejoin:miter;stroke-miterlimit:4;stroke-dasharray:none;stroke-opacity:1;marker-start:url(#marker1615-0)" id="path1611-3" d="m 110.46068,119.08264 0.11256,6.1179 v 0 0"/><circle style="fill:#323232;fill-opacity:1;fill-rule:evenodd;stroke-width:.253097" id="path2277" cx="106.342" cy="116.589" r=".75"/><circle style="fill:#323232;fill-opacity:1;fill-rule:evenodd;stroke-width:.168731" id="path2277-5" cx="110.5" cy="118.1" r=".5"/><circle style="fill:#121212;fill-opacity:1;fill-rule:evenodd;stroke-width:.118112" id="path2277-5-5" cx="112.25" cy="115.432" r=".35"/><circle style="fill:#323232;fill-opacity:1;fill-rule:evenodd;stroke-width:.168731" id="path2277-5-8" cx="114.211" cy="117.912" r=".5"/><path style="fill:none;stroke:#000;stroke-width:.165;stroke-linecap:butt;stroke-linejoin:miter;stroke-miterlimit:4;stroke-dasharray:none;stroke-opacity:1;marker-start:url(#marker2373);marker-end:url(#marker2373)" id="path2369" d="m 123.40922,132.48065 v 7.65402 h -6.70907 v 0 0"/><text style="font-style:italic;font-variant:normal;font-weight:400;font-stretch:normal;font-size:4.23333px;line-height:1.25;font-family:'Times New Roman';-inkscape-font-specification:'Times New Roman, Italic';fill:#000;fill-opacity:1;stroke:none;stroke-width:.264583" id="text2739" x="124.921" y="137.905" xml:space="preserve"><tspan id="tspan2737" x="124.921" y="137.905" style="font-style:italic;font-variant:normal;font-weight:400;font-stretch:normal;font-size:4.23333px;font-family:'Times New Roman';-inkscape-font-specification:'Times New Roman, Italic';stroke-width:.264583">x</tspan></text><text style="font-style:italic;font-size:4.23333px;line-height:1.25;font-family:'Times New Roman';-inkscape-font-specification:'Times New Roman, Italic';stroke-width:.264583" id="text2743" x="119.875" y="143.385" xml:space="preserve"><tspan id="tspan2741" x="119.875" y="143.385" style="font-size:4.23333px;stroke-width:.264583">y</tspan></text><path style="fill:none;stroke:#000;stroke-width:.165;stroke-linecap:butt;stroke-linejoin:miter;stroke-miterlimit:4;stroke-dasharray:.66,.33;stroke-dashoffset:0;stroke-opacity:1" id="path2745" d="m 109.40604,125.76937 -0.17092,-13.41595 -0.0945,0.18899"/><path style="fill:none;stroke:#000;stroke-width:.1;stroke-linecap:butt;stroke-linejoin:miter;stroke-miterlimit:4;stroke-dasharray:none;stroke-opacity:1" id="path2751" d="m 107.25074,119.53497 c 0.25589,-0.33463 0.51182,-0.66929 0.85254,-0.84058 0.34072,-0.17129 0.76594,-0.17916 1.1909,-0.18702"/><text style="font-style:italic;font-size:4.23333px;line-height:1.25;font-family:'Times New Roman';-inkscape-font-specification:'Times New Roman, Italic';stroke-width:.264583" id="text2764" x="105.38" y="123.901" xml:space="preserve"><tspan id="tspan2762" x="105.38" y="123.901" style="stroke-width:.264583">ϕ</tspan></text></g></svg>